<mxfile host="app.diagrams.net" modified="2023-11-12T14:29:03.664Z" agent="Mozilla/5.0 (Macintosh; Intel Mac OS X 10_15_7) AppleWebKit/537.36 (KHTML, like Gecko) Chrome/118.0.0.0 Safari/537.36" version="22.1.0" etag="XS7hkmWNk6ZJFakSaCAD" type="github">
  <diagram name="Page-1" id="uh0l7z7_bS0hKrUzzneM">
    <mxGraphModel>
      <root>
        <mxCell id="0" />
        <mxCell id="1" parent="0" />
      </root>
    </mxGraphModel>
  </diagram>
</mxfile>
